<svg width="28" height="28" viewBox="0 0 28 28" fill="none" xmlns="http://www.w3.org/2000/svg">
<path d="M14 28C21.732 28 28 21.732 28 14C28 6.26801 21.732 0 14 0C6.26801 0 0 6.26801 0 14C0 21.732 6.26801 28 14 28Z" fill="#004D7C"/>
<path d="M13.759 14.87C13.5282 14.87 13.3069 14.9617 13.1438 15.1249C12.9806 15.288 12.889 15.5093 12.889 15.74V18.35C12.889 18.5808 12.9806 18.8021 13.1438 18.9652C13.3069 19.1284 13.5282 19.22 13.759 19.22C13.9897 19.22 14.211 19.1284 14.3741 18.9652C14.5373 18.8021 14.629 18.5808 14.629 18.35V15.74C14.629 15.5093 14.5373 15.288 14.3741 15.1249C14.211 14.9617 13.9897 14.87 13.759 14.87ZM18.109 11.39V9.65005C18.109 8.49636 17.6506 7.38992 16.8349 6.57413C16.0191 5.75835 14.9126 5.30005 13.759 5.30005C12.6053 5.30005 11.4988 5.75835 10.683 6.57413C9.86725 7.38992 9.40895 8.49636 9.40895 9.65005V11.39C8.71674 11.39 8.05287 11.665 7.5634 12.1545C7.07393 12.644 6.79895 13.3078 6.79895 14V20.09C6.79895 20.7823 7.07393 21.4461 7.5634 21.9356C8.05287 22.4251 8.71674 22.7 9.40895 22.7H18.109C18.8012 22.7 19.465 22.4251 19.9545 21.9356C20.444 21.4461 20.719 20.7823 20.719 20.09V14C20.719 13.3078 20.444 12.644 19.9545 12.1545C19.465 11.665 18.8012 11.39 18.109 11.39ZM11.149 9.65005C11.149 8.95783 11.4239 8.29397 11.9134 7.8045C12.4029 7.31503 13.0667 7.04005 13.759 7.04005C14.4512 7.04005 15.115 7.31503 15.6045 7.8045C16.094 8.29397 16.3689 8.95783 16.3689 9.65005V11.39H11.149V9.65005ZM18.979 20.09C18.979 20.3208 18.8873 20.5421 18.7241 20.7052C18.561 20.8684 18.3397 20.96 18.109 20.96H9.40895C9.17821 20.96 8.95692 20.8684 8.79377 20.7052C8.63061 20.5421 8.53895 20.3208 8.53895 20.09V14C8.53895 13.7693 8.63061 13.548 8.79377 13.3849C8.95692 13.2217 9.17821 13.13 9.40895 13.13H18.109C18.3397 13.13 18.561 13.2217 18.7241 13.3849C18.8873 13.548 18.979 13.7693 18.979 14V20.09Z" fill="white"/>
</svg>
