<svg width="28" height="28" viewBox="0 0 28 28" fill="none" xmlns="http://www.w3.org/2000/svg">
<path d="M14 28C21.732 28 28 21.732 28 14C28 6.26801 21.732 0 14 0C6.26801 0 0 6.26801 0 14C0 21.732 6.26801 28 14 28Z" fill="#004D7C"/>
<path d="M12.695 20.96H8.34499C8.11425 20.96 7.89296 20.8684 7.7298 20.7052C7.56665 20.5421 7.47499 20.3208 7.47499 20.09V7.91005C7.47499 7.67931 7.56665 7.45802 7.7298 7.29487C7.89296 7.13171 8.11425 7.04005 8.34499 7.04005H12.695V9.65005C12.695 10.3423 12.97 11.0061 13.4594 11.4956C13.9489 11.9851 14.6128 12.26 15.305 12.26H17.915C17.915 12.4908 18.0066 12.7121 18.1698 12.8752C18.333 13.0384 18.5542 13.13 18.785 13.13C19.0157 13.13 19.237 13.0384 19.4002 12.8752C19.5633 12.7121 19.655 12.4908 19.655 12.26V11.338C19.646 11.2581 19.6286 11.1793 19.603 11.103V11.025C19.5613 10.9355 19.5056 10.8531 19.438 10.781L14.217 5.56105C14.1449 5.49497 14.0629 5.44064 13.974 5.40005C13.9481 5.39638 13.9219 5.39638 13.896 5.40005L13.617 5.30005H8.34499C7.65277 5.30005 6.98891 5.57503 6.49944 6.0645C6.00997 6.55397 5.73499 7.21783 5.73499 7.91005V20.09C5.73499 20.7823 6.00997 21.4461 6.49944 21.9356C6.98891 22.4251 7.65277 22.7 8.34499 22.7H12.695C12.9257 22.7 13.147 22.6084 13.3102 22.4452C13.4733 22.2821 13.565 22.0608 13.565 21.83C13.565 21.5993 13.4733 21.378 13.3102 21.2149C13.147 21.0517 12.9257 20.96 12.695 20.96ZM14.435 8.26705L16.688 10.52H15.305C15.0742 10.52 14.853 10.4284 14.6898 10.2652C14.5266 10.1021 14.435 9.88079 14.435 9.65005V8.26705ZM10.085 10.52C9.85425 10.52 9.63296 10.6117 9.4698 10.7749C9.30665 10.938 9.21499 11.1593 9.21499 11.39C9.21499 11.6208 9.30665 11.8421 9.4698 12.0052C9.63296 12.1684 9.85425 12.26 10.085 12.26H10.955C11.1857 12.26 11.407 12.1684 11.5702 12.0052C11.7333 11.8421 11.825 11.6208 11.825 11.39C11.825 11.1593 11.7333 10.938 11.5702 10.7749C11.407 10.6117 11.1857 10.52 10.955 10.52H10.085ZM21.943 15.62C21.8419 15.5383 21.7237 15.4802 21.5972 15.4501C21.4707 15.4199 21.3391 15.4186 21.212 15.446C20.8821 15.5155 20.5413 15.515 20.2116 15.4446C19.8819 15.3741 19.5707 15.2353 19.298 15.037C19.1489 14.9281 18.9691 14.8693 18.7845 14.8693C18.5999 14.8693 18.42 14.9281 18.271 15.037C17.9981 15.2349 17.6868 15.3734 17.3572 15.4439C17.0276 15.5143 16.6869 15.515 16.357 15.446C16.2285 15.4184 16.0954 15.4202 15.9677 15.4513C15.84 15.4824 15.721 15.5421 15.6196 15.6258C15.5183 15.7096 15.4372 15.8152 15.3826 15.9347C15.3279 16.0543 15.301 16.1846 15.304 16.316V18.35C15.3024 18.9727 15.4463 19.5872 15.724 20.1444C16.0018 20.7017 16.4058 21.1864 16.904 21.56L18.261 22.526C18.4116 22.639 18.5947 22.7 18.783 22.7C18.9712 22.7 19.1544 22.639 19.305 22.526L20.662 21.517C21.1543 21.1478 21.5548 20.67 21.8324 20.1207C22.1099 19.5714 22.2569 18.9654 22.262 18.35V16.288C22.2611 16.1595 22.2318 16.0328 22.1761 15.9169C22.1205 15.8011 22.0398 15.699 21.94 15.618L21.943 15.62ZM20.525 18.35C20.5291 18.6995 20.4527 19.0452 20.3019 19.3604C20.151 19.6757 19.9297 19.952 19.655 20.168L18.785 20.794L17.915 20.168C17.6403 19.952 17.419 19.6757 17.2681 19.3604C17.1172 19.0452 17.0409 18.6995 17.045 18.35V17.236C17.6535 17.2085 18.2481 17.0449 18.785 16.757C19.3219 17.0449 19.9165 17.2085 20.525 17.236V18.35ZM12.695 17.524H10.085C9.85425 17.524 9.63296 17.6157 9.4698 17.7789C9.30665 17.942 9.21499 18.1633 9.21499 18.394C9.21499 18.6248 9.30665 18.8461 9.4698 19.0092C9.63296 19.1724 9.85425 19.264 10.085 19.264H12.695C12.9257 19.264 13.147 19.1724 13.3102 19.0092C13.4733 18.8461 13.565 18.6248 13.565 18.394C13.565 18.1633 13.4733 17.942 13.3102 17.7789C13.147 17.6157 12.9257 17.524 12.695 17.524ZM13.565 14.044H10.085C9.85425 14.044 9.63296 14.1357 9.4698 14.2989C9.30665 14.462 9.21499 14.6833 9.21499 14.914C9.21499 15.1448 9.30665 15.3661 9.4698 15.5292C9.63296 15.6924 9.85425 15.784 10.085 15.784H13.565C13.7957 15.784 14.017 15.6924 14.1802 15.5292C14.3433 15.3661 14.435 15.1448 14.435 14.914C14.435 14.6833 14.3433 14.462 14.1802 14.2989C14.017 14.1357 13.7957 14.044 13.565 14.044Z" fill="white"/>
</svg>
