<svg width="52" height="52" viewBox="0 0 52 52" fill="none" xmlns="http://www.w3.org/2000/svg">
<g filter="url(#filter0_d_18_438)">
<path d="M26 3C29.9556 3 33.8224 4.17298 37.1114 6.37061C40.4004 8.56824 42.9638 11.6918 44.4776 15.3463C45.9913 19.0009 46.3874 23.0222 45.6157 26.9018C44.844 30.7814 42.9392 34.3451 40.1421 37.1421C37.3451 39.9392 33.7814 41.844 29.9018 42.6157C26.0222 43.3874 22.0009 42.9913 18.3463 41.4776C14.6918 39.9638 11.5682 37.4004 9.37061 34.1114C7.17298 30.8224 6 26.9556 6 23C6 17.6957 8.10714 12.6086 11.8579 8.85786C15.6086 5.10714 20.6957 3 26 3Z" fill="#004D7C"/>
</g>
<path d="M26.292 16.2131L27.792 17.7131C27.9619 17.8879 28.1904 17.9937 28.4336 18.0104C28.6768 18.027 28.9175 17.9532 29.1097 17.8033C29.3018 17.6533 29.4318 17.4376 29.4747 17.1976C29.5176 16.9577 29.4703 16.7104 29.342 16.5031H33.002C33.2672 16.5031 33.5216 16.3977 33.7091 16.2102C33.8967 16.0227 34.002 15.7683 34.002 15.5031C34.002 15.2379 33.8967 14.9835 33.7091 14.796C33.5216 14.6085 33.2672 14.5031 33.002 14.5031H29.342C29.4678 14.2958 29.5131 14.0495 29.4694 13.811C29.4257 13.5725 29.296 13.3584 29.1048 13.2091C28.9137 13.0599 28.6745 12.9861 28.4325 13.0015C28.1905 13.017 27.9626 13.1208 27.792 13.2931L26.292 14.7931C26.157 14.936 26.0655 15.1145 26.0283 15.3075C25.9912 15.5006 26.0098 15.7002 26.082 15.8831C26.1296 16.0058 26.201 16.118 26.292 16.2131ZM36.922 20.1231C36.8744 20.0003 36.8031 19.8882 36.712 19.7931L35.212 18.2931C35.0421 18.1183 34.8136 18.0125 34.5704 17.9958C34.3272 17.9792 34.0865 18.0529 33.8943 18.2029C33.7022 18.3529 33.5722 18.5686 33.5293 18.8086C33.4865 19.0485 33.5337 19.2958 33.662 19.5031H30.002C29.7368 19.5031 29.4824 19.6085 29.2949 19.796C29.1074 19.9835 29.002 20.2379 29.002 20.5031C29.002 20.7683 29.1074 21.0227 29.2949 21.2102C29.4824 21.3977 29.7368 21.5031 30.002 21.5031H33.662C33.5362 21.7104 33.4909 21.9567 33.5346 22.1952C33.5783 22.4337 33.708 22.6478 33.8992 22.7971C34.0903 22.9463 34.3296 23.0201 34.5716 23.0047C34.8135 22.9892 35.0414 22.8854 35.212 22.7131L36.712 21.2131C36.847 21.0702 36.9385 20.8917 36.9757 20.6987C37.0129 20.5056 36.9943 20.3059 36.922 20.1231ZM25.002 21.0031C24.0766 21.0029 23.1797 21.3236 22.4642 21.9105C21.7487 22.4975 21.2589 23.3143 21.0782 24.222C20.8975 25.1296 21.037 26.0718 21.4731 26.888C21.9092 27.7043 22.6148 28.344 23.4698 28.6983C24.3247 29.0526 25.276 29.0995 26.1616 28.8311C27.0473 28.5626 27.8124 27.9953 28.3267 27.2259C28.8409 26.4565 29.0725 25.5326 28.982 24.6117C28.8914 23.6907 28.4843 22.8296 27.83 22.1751C27.08 21.4249 26.0628 21.0033 25.002 21.0031ZM25.002 27.0031C24.5393 27.0032 24.0909 26.8428 23.7331 26.5494C23.3754 26.2559 23.1305 25.8475 23.0401 25.3937C22.9497 24.9399 23.0195 24.4688 23.2376 24.0606C23.4556 23.6525 23.8084 23.3326 24.2359 23.1555C24.6633 22.9783 25.139 22.9549 25.5818 23.0891C26.0246 23.2234 26.4072 23.507 26.6643 23.8917C26.9215 24.2764 27.0373 24.7383 26.992 25.1988C26.9467 25.6593 26.7432 26.0899 26.416 26.4171C26.041 26.7922 25.5324 27.003 25.002 27.0031ZM34.002 24.0031C33.7368 24.0031 33.4824 24.1085 33.2949 24.296C33.1074 24.4835 33.002 24.7379 33.002 25.0031V30.0031C33.002 30.2683 32.8967 30.5227 32.7091 30.7102C32.5216 30.8977 32.2672 31.0031 32.002 31.0031H18.002C17.7368 31.0031 17.4824 30.8977 17.2949 30.7102C17.1074 30.5227 17.002 30.2683 17.002 30.0031V22.0031C17.002 21.7379 17.1074 21.4835 17.2949 21.296C17.4824 21.1085 17.7368 21.0031 18.002 21.0031H20.002C20.2213 21.0138 20.4381 20.9521 20.6188 20.8274C20.7995 20.7027 20.9342 20.5219 21.002 20.3131L21.542 18.6931C21.6045 18.5005 21.724 18.3314 21.8847 18.2082C22.0455 18.085 22.2398 18.0135 22.442 18.0031H24.002C24.2672 18.0031 24.5216 17.8977 24.7091 17.7102C24.8967 17.5227 25.002 17.2683 25.002 17.0031C25.002 16.7379 24.8967 16.4835 24.7091 16.296C24.5216 16.1085 24.2672 16.0031 24.002 16.0031H22.442C21.8106 16.0029 21.1953 16.2019 20.6835 16.5717C20.1718 16.9416 19.7899 17.4635 19.592 18.0631L19.282 19.0031H18.002C17.2064 19.0031 16.4433 19.3192 15.8807 19.8818C15.3181 20.4444 15.002 21.2074 15.002 22.0031V30.0031C15.002 30.7987 15.3181 31.5618 15.8807 32.1244C16.4433 32.687 17.2064 33.0031 18.002 33.0031H32.002C32.7977 33.0031 33.5607 32.687 34.1233 32.1244C34.6859 31.5618 35.002 30.7987 35.002 30.0031V25.0031C35.002 24.7379 34.8967 24.4835 34.7091 24.296C34.5216 24.1085 34.2672 24.0031 34.002 24.0031Z" fill="white"/>
<defs>
<filter id="filter0_d_18_438" x="0" y="0" width="52" height="52" filterUnits="userSpaceOnUse" color-interpolation-filters="sRGB">
<feFlood flood-opacity="0" result="BackgroundImageFix"/>
<feColorMatrix in="SourceAlpha" type="matrix" values="0 0 0 0 0 0 0 0 0 0 0 0 0 0 0 0 0 0 127 0" result="hardAlpha"/>
<feOffset dy="3"/>
<feGaussianBlur stdDeviation="3"/>
<feColorMatrix type="matrix" values="0 0 0 0 0 0 0 0 0 0 0 0 0 0 0 0 0 0 0.161 0"/>
<feBlend mode="normal" in2="BackgroundImageFix" result="effect1_dropShadow_18_438"/>
<feBlend mode="normal" in="SourceGraphic" in2="effect1_dropShadow_18_438" result="shape"/>
</filter>
</defs>
</svg>
