<svg width="12" height="12" viewBox="0 0 12 12" fill="none" xmlns="http://www.w3.org/2000/svg">
<path d="M10.995 5.00411H3.40504L6.70504 1.71411C6.89335 1.5258 6.99914 1.27041 6.99914 1.00411C6.99914 0.737805 6.89335 0.482411 6.70504 0.294107C6.51674 0.105803 6.26135 1.52588e-05 5.99504 1.52588e-05C5.72874 1.52588e-05 5.47335 0.105803 5.28504 0.294107L0.285044 5.29411C0.194003 5.38921 0.122638 5.50136 0.075044 5.62411C-0.024974 5.86757 -0.024974 6.14065 0.075044 6.38411C0.122638 6.50686 0.194003 6.619 0.285044 6.71411L5.28504 11.7141C5.37801 11.8078 5.48861 11.8822 5.61047 11.933C5.73233 11.9838 5.86303 12.0099 5.99504 12.0099C6.12706 12.0099 6.25776 11.9838 6.37962 11.933C6.50148 11.8822 6.61208 11.8078 6.70504 11.7141C6.79877 11.6211 6.87317 11.5105 6.92394 11.3887C6.9747 11.2668 7.00084 11.1361 7.00084 11.0041C7.00084 10.8721 6.9747 10.7414 6.92394 10.6195C6.87317 10.4977 6.79877 10.3871 6.70504 10.2941L3.40504 7.00411H10.995C11.2603 7.00411 11.5146 6.89875 11.7022 6.71121C11.8897 6.52368 11.995 6.26932 11.995 6.00411C11.995 5.73889 11.8897 5.48454 11.7022 5.297C11.5146 5.10946 11.2603 5.00411 10.995 5.00411Z" fill="black"/>
</svg>
