<svg width="28" height="28" viewBox="0 0 28 28" fill="none" xmlns="http://www.w3.org/2000/svg">
<path d="M14 28C21.732 28 28 21.732 28 14C28 6.26801 21.732 0 14 0C6.26801 0 0 6.26801 0 14C0 21.732 6.26801 28 14 28Z" fill="#004D7C"/>
<path d="M20.09 7.04004H7.91005C7.21783 7.04004 6.55397 7.31502 6.0645 7.80449C5.57503 8.29396 5.30005 8.95782 5.30005 9.65004L5.30005 18.35C5.30005 19.0423 5.57503 19.7061 6.0645 20.1956C6.55397 20.6851 7.21783 20.96 7.91005 20.96H20.09C20.7823 20.96 21.4461 20.6851 21.9356 20.1956C22.4251 19.7061 22.7 19.0423 22.7 18.35V9.65004C22.7 8.95782 22.4251 8.29396 21.9356 7.80449C21.4461 7.31502 20.7823 7.04004 20.09 7.04004ZM19.733 8.78004L14.618 13.896C14.5372 13.9775 14.441 14.0422 14.335 14.0863C14.229 14.1305 14.1154 14.1532 14.0005 14.1532C13.8857 14.1532 13.7721 14.1305 13.6661 14.0863C13.5601 14.0422 13.4639 13.9775 13.383 13.896L8.26705 8.78004H19.733ZM20.96 18.35C20.96 18.5808 20.8684 18.8021 20.7052 18.9652C20.5421 19.1284 20.3208 19.22 20.09 19.22H7.91005C7.67931 19.22 7.45802 19.1284 7.29487 18.9652C7.13171 18.8021 7.04005 18.5808 7.04005 18.35V10.007L12.156 15.122C12.6454 15.6109 13.3088 15.8854 14.0005 15.8854C14.6922 15.8854 15.3557 15.6109 15.845 15.122L20.96 10.007V18.35Z" fill="white"/>
</svg>
