<svg width="21" height="21" viewBox="0 0 21 21" fill="none" xmlns="http://www.w3.org/2000/svg">
<path d="M14.285 11.704C15.2654 10.9327 15.981 9.87492 16.3322 8.67794C16.6835 7.48096 16.6529 6.20426 16.2448 5.02547C15.8367 3.84667 15.0713 2.82439 14.0551 2.10085C13.0389 1.37732 11.8225 0.988503 10.575 0.988503C9.32756 0.988503 8.11112 1.37732 7.09494 2.10085C6.07875 2.82439 5.31335 3.84667 4.90522 5.02547C4.49709 6.20426 4.46652 7.48096 4.81777 8.67794C5.16902 9.87492 5.88462 10.9327 6.86501 11.704C5.18509 12.377 3.7193 13.4933 2.6239 14.9339C1.52851 16.3745 0.844572 18.0853 0.645009 19.884C0.630564 20.0153 0.642125 20.1482 0.679034 20.2751C0.715943 20.4019 0.777476 20.5203 0.86012 20.6233C0.942765 20.7264 1.0449 20.8122 1.1607 20.8758C1.2765 20.9394 1.40369 20.9796 1.53501 20.994C1.66633 21.0084 1.79921 20.9969 1.92607 20.96C2.05292 20.9231 2.17126 20.8615 2.27433 20.7789C2.37741 20.6962 2.46319 20.5941 2.52679 20.4783C2.59039 20.3625 2.63056 20.2353 2.64501 20.104C2.86459 18.1492 3.7967 16.3438 5.26323 15.0328C6.72976 13.7218 8.62791 12.997 10.595 12.997C12.5621 12.997 14.4603 13.7218 15.9268 15.0328C17.3933 16.3438 18.3254 18.1492 18.545 20.104C18.5722 20.3497 18.6894 20.5767 18.8741 20.741C19.0588 20.9054 19.2978 20.9955 19.545 20.994H19.655C19.9171 20.9638 20.1567 20.8313 20.3216 20.6252C20.4864 20.4192 20.5631 20.1564 20.535 19.894C20.3345 18.0902 19.6469 16.375 18.5459 14.9322C17.4448 13.4894 15.9719 12.3735 14.285 11.704ZM10.575 10.994C9.64958 10.9942 8.75271 10.6735 8.03722 10.0866C7.32173 9.49962 6.83189 8.68275 6.65117 7.77514C6.47045 6.86752 6.61002 5.92532 7.04611 5.10908C7.4822 4.29284 8.18782 3.65306 9.04275 3.29876C9.89767 2.94446 10.849 2.89755 11.7346 3.16603C12.6203 3.43452 13.3854 4.00178 13.8997 4.77116C14.4139 5.54055 14.6455 6.46444 14.555 7.38543C14.4644 8.30642 14.0573 9.16752 13.403 9.822C12.653 10.5722 11.6358 10.9938 10.575 10.994Z" fill="#004D7C"/>
</svg>
