<svg width="28" height="28" viewBox="0 0 28 28" fill="none" xmlns="http://www.w3.org/2000/svg">
<path d="M14 28C21.732 28 28 21.732 28 14C28 6.26801 21.732 0 14 0C6.26801 0 0 6.26801 0 14C0 21.732 6.26801 28 14 28Z" fill="#004D7C"/>
<path d="M12.878 10.7699C12.7971 10.6884 12.7009 10.6238 12.5949 10.5796C12.4889 10.5355 12.3753 10.5128 12.2605 10.5128C12.1456 10.5128 12.032 10.5355 11.926 10.5796C11.82 10.6238 11.7238 10.6884 11.643 10.7699L9.03295 13.3799C8.95147 13.4608 8.8868 13.557 8.84266 13.663C8.79853 13.769 8.77581 13.8826 8.77581 13.9974C8.77581 14.1122 8.79853 14.2259 8.84266 14.3319C8.8868 14.4379 8.95147 14.5341 9.03295 14.6149L11.643 17.2249C11.7221 17.3138 11.8185 17.3856 11.9263 17.4359C12.0342 17.4862 12.1511 17.5139 12.2701 17.5174C12.389 17.5209 12.5074 17.5001 12.618 17.4562C12.7286 17.4124 12.8291 17.3464 12.9133 17.2623C12.9975 17.1782 13.0636 17.0779 13.1077 16.9673C13.1517 16.8568 13.1727 16.7384 13.1694 16.6195C13.1661 16.5006 13.1386 16.3835 13.0884 16.2756C13.0383 16.1677 12.9667 16.0712 12.878 15.9919L11.747 14.8699H21.83C21.9442 14.8699 22.0573 14.8474 22.1629 14.8037C22.2684 14.76 22.3643 14.6959 22.4451 14.6151C22.5259 14.5343 22.59 14.4384 22.6337 14.3329C22.6774 14.2273 22.7 14.1142 22.7 13.9999C22.7 13.8857 22.6774 13.7725 22.6337 13.667C22.59 13.5614 22.5259 13.4655 22.4451 13.3847C22.3643 13.304 22.2684 13.2399 22.1629 13.1961C22.0573 13.1524 21.9442 13.1299 21.83 13.1299H11.747L12.878 12.0079C12.9594 11.9271 13.0241 11.8309 13.0682 11.7249C13.1124 11.6189 13.1351 11.5052 13.1351 11.3904C13.1351 11.2756 13.1124 11.162 13.0682 11.056C13.0241 10.95 12.9594 10.8538 12.878 10.7729V10.7699ZM16.61 19.2199V17.4799C16.61 17.2492 16.5183 17.0279 16.3551 16.8647C16.192 16.7016 15.9707 16.6099 15.74 16.6099C15.5092 16.6099 15.2879 16.7016 15.1248 16.8647C14.9616 17.0279 14.87 17.2492 14.87 17.4799V19.2199C14.87 19.4507 14.7783 19.6719 14.6151 19.8351C14.452 19.9983 14.2307 20.0899 14 20.0899H7.90995C7.67921 20.0899 7.45792 19.9983 7.29477 19.8351C7.13161 19.6719 7.03995 19.4507 7.03995 19.2199V8.77992C7.03995 8.54918 7.13161 8.3279 7.29477 8.16474C7.45792 8.00158 7.67921 7.90992 7.90995 7.90992L14 7.90992C14.2307 7.90992 14.452 8.00158 14.6151 8.16474C14.7783 8.3279 14.87 8.54918 14.87 8.77992V10.5199C14.87 10.6342 14.8925 10.7473 14.9362 10.8529C14.9799 10.9584 15.044 11.0543 15.1248 11.1351C15.2056 11.2159 15.3015 11.28 15.407 11.3237C15.5126 11.3674 15.6257 11.3899 15.74 11.3899C15.8542 11.3899 15.9673 11.3674 16.0729 11.3237C16.1784 11.28 16.2743 11.2159 16.3551 11.1351C16.4359 11.0543 16.5 10.9584 16.5437 10.8529C16.5874 10.7473 16.61 10.6342 16.61 10.5199V8.77992C16.61 8.08771 16.335 7.42384 15.8455 6.93437C15.356 6.4449 14.6922 6.16992 14 6.16992L7.90995 6.16992C7.21774 6.16992 6.55387 6.4449 6.0644 6.93437C5.57493 7.42384 5.29995 8.08771 5.29995 8.77992V19.2199C5.29995 19.9121 5.57493 20.576 6.0644 21.0655C6.55387 21.5549 7.21774 21.8299 7.90995 21.8299H14C14.6922 21.8299 15.356 21.5549 15.8455 21.0655C16.335 20.576 16.61 19.9121 16.61 19.2199Z" fill="white"/>
</svg>
