<svg width="28" height="28" viewBox="0 0 28 28" fill="none" xmlns="http://www.w3.org/2000/svg">
<path d="M14 28C21.732 28 28 21.732 28 14C28 6.26801 21.732 0 14 0C6.26801 0 0 6.26801 0 14C0 21.732 6.26801 28 14 28Z" fill="#004D7C"/>
<path d="M17.453 7.92705C17.6633 8.04622 17.9121 8.07747 18.1453 8.01397C18.3785 7.95047 18.5772 7.79738 18.698 7.58805C18.7782 7.44862 18.8936 7.33272 19.0327 7.25198C19.1718 7.17124 19.3296 7.12851 19.4905 7.12806C19.6513 7.12762 19.8094 7.16948 19.9489 7.24945C20.0885 7.32941 20.2045 7.44467 20.2855 7.58366C20.3664 7.72264 20.4093 7.88047 20.41 8.04129C20.4107 8.20212 20.369 8.36029 20.2892 8.49994C20.2095 8.63959 20.0943 8.75579 19.9555 8.8369C19.8166 8.91801 19.6588 8.96117 19.498 8.96205C19.2551 8.96205 19.0221 9.05855 18.8503 9.23034C18.6785 9.40212 18.582 9.63511 18.582 9.87805C18.582 10.121 18.6785 10.354 18.8503 10.5258C19.0221 10.6975 19.2551 10.794 19.498 10.794C19.9801 10.7936 20.4536 10.6664 20.8709 10.425C21.2882 10.1837 21.6347 9.8368 21.8755 9.41917C22.1162 9.00154 22.2429 8.52789 22.2427 8.04582C22.2425 7.56374 22.1154 7.09021 21.8742 6.6728C21.633 6.25538 21.2863 5.90878 20.8687 5.66782C20.4512 5.42686 19.9776 5.30002 19.4955 5.30005C19.0135 5.30007 18.5399 5.42696 18.1224 5.66797C17.7049 5.90897 17.3581 6.25561 17.117 6.67305C17.0564 6.7776 17.0171 6.89311 17.0014 7.01291C16.9857 7.13272 16.9938 7.25445 17.0253 7.37111C17.0568 7.48776 17.1111 7.59703 17.185 7.69261C17.2589 7.7882 17.351 7.86821 17.456 7.92805L17.453 7.92705ZM21.391 14.457C21.1505 14.4258 20.9074 14.4912 20.7151 14.639C20.5228 14.7867 20.3969 15.0046 20.365 15.245C20.1727 16.7975 19.4195 18.226 18.2472 19.2617C17.0748 20.2974 15.5643 20.8687 14 20.868H8.881L9.481 20.268C9.65144 20.0964 9.74709 19.8644 9.74709 19.6225C9.74709 19.3807 9.65144 19.1486 9.481 18.977C8.58979 18.0806 7.98345 16.9408 7.73823 15.7007C7.493 14.4607 7.61983 13.1758 8.10276 12.0077C8.58569 10.8395 9.40318 9.84017 10.4525 9.13529C11.5017 8.43042 12.736 8.05146 14 8.04605C14.2429 8.04605 14.4759 7.94954 14.6477 7.77776C14.8195 7.60597 14.916 7.37299 14.916 7.13005C14.916 6.88711 14.8195 6.65412 14.6477 6.48234C14.4759 6.31055 14.2429 6.21405 14 6.21405C12.4507 6.21977 10.9344 6.66207 9.62498 7.4902C8.31557 8.31833 7.26608 9.49876 6.59691 10.8961C5.92773 12.2934 5.66595 13.8511 5.8416 15.3904C6.01726 16.9297 6.62322 18.3884 7.59 19.599L6.024 21.133C5.89691 21.2619 5.81066 21.4254 5.77603 21.603C5.7414 21.7807 5.75994 21.9646 5.82932 22.1318C5.89871 22.2989 6.01585 22.4419 6.1661 22.5428C6.31635 22.6437 6.49302 22.6981 6.674 22.699H14C16.0069 22.6994 17.9449 21.9674 19.4506 20.6405C20.9562 19.3137 21.926 17.483 22.178 15.492C22.1947 15.3723 22.1876 15.2504 22.157 15.1334C22.1264 15.0164 22.0729 14.9066 21.9996 14.8104C21.9264 14.7142 21.8348 14.6334 21.7301 14.5728C21.6255 14.5121 21.5099 14.4728 21.39 14.457H21.391ZM19.843 11.774C19.6763 11.7004 19.4914 11.6781 19.312 11.71L19.147 11.765L18.982 11.847L18.845 11.966C18.7627 12.0504 18.6975 12.1499 18.653 12.259C18.599 12.3732 18.574 12.4989 18.58 12.625C18.58 12.868 18.6765 13.101 18.8483 13.2728C19.0201 13.4445 19.2531 13.541 19.496 13.541C19.7389 13.541 19.9719 13.4445 20.1437 13.2728C20.3155 13.101 20.412 12.868 20.412 12.625C20.4152 12.5049 20.3902 12.3858 20.339 12.277C20.2406 12.0567 20.0643 11.8805 19.844 11.782L19.843 11.774Z" fill="white"/>
</svg>
