<svg width="26" height="10" viewBox="0 0 26 10" fill="none" xmlns="http://www.w3.org/2000/svg">
<path d="M3.90138 9.084C3.28538 9.084 2.73338 8.984 2.24538 8.784C1.75738 8.584 1.36538 8.288 1.06938 7.896C0.781375 7.504 0.629375 7.032 0.613375 6.48H2.79738C2.82938 6.792 2.93738 7.032 3.12138 7.2C3.30538 7.36 3.54538 7.44 3.84138 7.44C4.14538 7.44 4.38538 7.372 4.56138 7.236C4.73738 7.092 4.82538 6.896 4.82538 6.648C4.82538 6.44 4.75338 6.268 4.60938 6.132C4.47338 5.996 4.30138 5.884 4.09338 5.796C3.89338 5.708 3.60538 5.608 3.22938 5.496C2.68538 5.328 2.24138 5.16 1.89738 4.992C1.55338 4.824 1.25738 4.576 1.00938 4.248C0.761375 3.92 0.637375 3.492 0.637375 2.964C0.637375 2.18 0.921375 1.568 1.48938 1.128C2.05738 0.68 2.79738 0.456 3.70938 0.456C4.63738 0.456 5.38538 0.68 5.95338 1.128C6.52138 1.568 6.82538 2.184 6.86538 2.976H4.64538C4.62938 2.704 4.52938 2.492 4.34538 2.34C4.16138 2.18 3.92538 2.1 3.63737 2.1C3.38938 2.1 3.18938 2.168 3.03738 2.304C2.88538 2.432 2.80938 2.62 2.80938 2.868C2.80938 3.14 2.93738 3.352 3.19337 3.504C3.44938 3.656 3.84938 3.82 4.39338 3.996C4.93738 4.18 5.37738 4.356 5.71338 4.524C6.05738 4.692 6.35338 4.936 6.60138 5.256C6.84938 5.576 6.97338 5.988 6.97338 6.492C6.97338 6.972 6.84938 7.408 6.60138 7.8C6.36138 8.192 6.00938 8.504 5.54538 8.736C5.08138 8.968 4.53338 9.084 3.90138 9.084ZM17.7762 0.576V9H15.7242V3.948L13.8402 9H12.1842L10.2882 3.936V9H8.23619V0.576H10.6602L13.0242 6.408L15.3642 0.576H17.7762ZM22.2998 9.084C21.6838 9.084 21.1318 8.984 20.6438 8.784C20.1558 8.584 19.7638 8.288 19.4678 7.896C19.1798 7.504 19.0278 7.032 19.0118 6.48H21.1958C21.2278 6.792 21.3358 7.032 21.5198 7.2C21.7038 7.36 21.9438 7.44 22.2398 7.44C22.5438 7.44 22.7838 7.372 22.9598 7.236C23.1358 7.092 23.2238 6.896 23.2238 6.648C23.2238 6.44 23.1518 6.268 23.0078 6.132C22.8718 5.996 22.6998 5.884 22.4918 5.796C22.2918 5.708 22.0038 5.608 21.6278 5.496C21.0838 5.328 20.6398 5.16 20.2958 4.992C19.9518 4.824 19.6558 4.576 19.4078 4.248C19.1598 3.92 19.0358 3.492 19.0358 2.964C19.0358 2.18 19.3198 1.568 19.8878 1.128C20.4558 0.68 21.1958 0.456 22.1078 0.456C23.0358 0.456 23.7838 0.68 24.3518 1.128C24.9198 1.568 25.2238 2.184 25.2638 2.976H23.0438C23.0278 2.704 22.9278 2.492 22.7438 2.34C22.5598 2.18 22.3238 2.1 22.0358 2.1C21.7878 2.1 21.5878 2.168 21.4358 2.304C21.2838 2.432 21.2078 2.62 21.2078 2.868C21.2078 3.14 21.3358 3.352 21.5918 3.504C21.8478 3.656 22.2478 3.82 22.7918 3.996C23.3358 4.18 23.7758 4.356 24.1118 4.524C24.4558 4.692 24.7518 4.936 24.9998 5.256C25.2478 5.576 25.3718 5.988 25.3718 6.492C25.3718 6.972 25.2478 7.408 24.9998 7.8C24.7598 8.192 24.4078 8.504 23.9438 8.736C23.4798 8.968 22.9318 9.084 22.2998 9.084Z" fill="white"/>
</svg>
