<svg width="27" height="27" viewBox="0 0 27 27" fill="none" xmlns="http://www.w3.org/2000/svg">
<path d="M21.4753 20.5296C20.9247 20.5315 20.3792 20.4282 19.8702 20.2257C19.3613 20.0232 18.899 19.7254 18.5101 19.3496L14.2268 15.2176C14.0753 15.0779 13.8738 15 13.6642 15C13.4546 15 13.253 15.0779 13.1015 15.2176L8.80381 19.361C8.41515 19.7373 7.95299 20.0357 7.44403 20.2388C6.93507 20.4419 6.3894 20.5458 5.83856 20.5444H5L10.4276 25.7771C11.2416 26.5602 12.3446 27 13.4946 27C14.6446 27 15.7476 26.5602 16.5616 25.7771L22 20.5331L21.4753 20.5296Z" fill="white"/>
<path d="M5.83991 6.45054C6.39105 6.44912 6.93702 6.55294 7.44626 6.75598C7.9555 6.95902 8.4179 7.25726 8.80674 7.63347L13.1067 11.7759C13.2562 11.9194 13.4587 12 13.6697 12C13.8808 12 14.0832 11.9194 14.2327 11.7759L18.5173 7.64916C18.9058 7.27248 19.3681 6.97388 19.8774 6.77066C20.3867 6.56745 20.9328 6.46367 21.4841 6.46536H22L16.5587 1.22456C16.1558 0.836337 15.6774 0.528373 15.1509 0.318259C14.6243 0.108145 14.06 0 13.49 0C12.9201 0 12.3558 0.108145 11.8292 0.318259C11.3027 0.528373 10.8243 0.836337 10.4214 1.22456L5 6.45054H5.83991Z" fill="white"/>
<path d="M25.7983 10.3696L22.6905 7.01477C22.6205 7.0457 22.5456 7.06199 22.4698 7.06279H21.0567C20.3213 7.06478 19.6164 7.38005 19.0952 7.94005L15.0456 12.3088C14.6809 12.7018 14.1866 12.9225 13.6713 12.9225C13.156 12.9225 12.6618 12.7018 12.2971 12.3088L8.23205 7.92343C7.71098 7.36309 7.00604 7.04748 6.27055 7.04525H4.53573C4.46424 7.04351 4.39358 7.02819 4.32701 7L1.19955 10.3696C0.431404 11.2006 0 12.3265 0 13.5005C0 14.6744 0.431404 15.8004 1.19955 16.6313L4.32016 20C4.3866 19.9713 4.45734 19.956 4.52889 19.9548H6.27055C7.00602 19.9524 7.71093 19.6368 8.23205 19.0766L12.2962 14.6894C13.031 13.8971 14.3116 13.8971 15.0456 14.6894L19.0952 19.06C19.6164 19.62 20.3213 19.9352 21.0567 19.9372H22.4698C22.5456 19.9378 22.6205 19.9541 22.6905 19.9852L25.7983 16.6304C26.1793 16.2193 26.4815 15.7312 26.6877 15.194C26.8939 14.6568 27 14.081 27 13.4995C27 12.9181 26.8939 12.3423 26.6877 11.8051C26.4815 11.2678 26.1793 10.7798 25.7983 10.3687" fill="white"/>
</svg>
