<svg width="335" height="226" viewBox="0 0 335 226" fill="none" xmlns="http://www.w3.org/2000/svg">
<rect width="335" height="226" fill="#FAFAFA"/>
<path d="M35.8627 137.299V192.081" stroke="#D6D6D6" stroke-width="0.25" stroke-miterlimit="10"/>
<path d="M70.0378 74.5715V192.081" stroke="#D6D6D6" stroke-width="0.25" stroke-miterlimit="10"/>
<path d="M104.424 85.026V192.081" stroke="#D6D6D6" stroke-width="0.25" stroke-miterlimit="10"/>
<path d="M134.38 139.39V192.081" stroke="#D6D6D6" stroke-width="0.25" stroke-miterlimit="10"/>
<path d="M166.445 124.753V192.081" stroke="#D6D6D6" stroke-width="0.25" stroke-miterlimit="10"/>
<path d="M198.722 109.281V192.081" stroke="#D6D6D6" stroke-width="0.25" stroke-miterlimit="10"/>
<path d="M232.897 60.1442V192.081" stroke="#D6D6D6" stroke-width="0.25" stroke-miterlimit="10"/>
<path d="M263.064 116.181V192.081" stroke="#D6D6D6" stroke-width="0.25" stroke-miterlimit="10"/>
<path d="M295.129 135.208V192.08" stroke="#D6D6D6" stroke-width="0.25" stroke-miterlimit="10"/>
<path d="M334.789 83.3533C321.499 82.0988 310.107 92.9715 304.2 104.89C298.082 116.599 300.614 139.599 287.324 140.644C279.096 141.272 275.721 129.144 270.025 123.499C267.705 121.199 265.595 119.108 264.118 116.181C262.431 112.417 262.431 107.817 259.266 105.099C255.891 102.172 249.984 103.426 246.82 100.29C245.554 99.0351 244.921 97.1533 244.288 95.2715C240.913 83.5624 242.179 69.9715 234.795 60.1442C233.108 57.8442 230.576 55.7533 227.834 55.1261C220.661 53.8715 215.809 62.2351 213.278 68.9261C207.371 85.4442 201.253 102.172 195.346 118.69C193.659 123.499 191.76 128.308 187.963 131.653C184.166 134.999 177.837 136.253 174.251 132.908C170.875 129.981 168.555 122.662 164.547 124.544C159.484 126.844 161.382 135.417 158.007 139.808C154.632 144.199 148.936 147.335 143.451 146.29C136.489 144.826 132.692 137.717 129.739 131.235C123.41 117.226 117.081 103.008 110.752 88.9988C109.487 86.2806 107.799 83.3533 104.846 82.9351C99.1499 82.0988 96.1965 91.5079 90.5006 90.8806C87.5472 90.4624 85.8596 87.7442 84.3829 85.2351C82.2733 81.4715 79.9528 71.8533 73.835 71.6442C67.9282 71.4351 51.0516 96.9442 48.5201 112.626C47.6763 117.226 47.4653 122.035 45.7777 126.426C44.09 130.817 40.2928 134.79 35.6517 135.208C33.9641 135.417 32.0655 134.999 30.3778 135.626C26.3696 137.09 25.7368 142.108 24.682 146.081C21.7286 155.699 10.1259 161.762 0.210938 158.626" stroke="black" stroke-miterlimit="10"/>
<g clip-path="url(#clip0_21_1098)">
<path d="M228.7 54.8C228.7 56.4 227.4 57.6 225.9 57.6C224.3 57.7 223 56.4 223 54.8C223 53.2 224.3 52 225.8 52C227.4 52 228.7 53.3 228.7 54.8Z" fill="black"/>
</g>
<path d="M30.7439 202.03V207.18C30.7439 207.753 30.5672 208.213 30.2139 208.56C29.8605 208.9 29.3939 209.07 28.8139 209.07C28.2272 209.07 27.7572 208.897 27.4039 208.55C27.0505 208.197 26.8739 207.717 26.8739 207.11H27.7839C27.7905 207.45 27.8772 207.727 28.0439 207.94C28.2172 208.153 28.4739 208.26 28.8139 208.26C29.1539 208.26 29.4072 208.16 29.5739 207.96C29.7405 207.753 29.8239 207.493 29.8239 207.18V202.03H30.7439ZM36.6566 207.45H33.6166L33.0566 209H32.0966L34.6166 202.07H35.6666L38.1766 209H37.2166L36.6566 207.45ZM36.3966 206.71L35.1366 203.19L33.8766 206.71H36.3966ZM44.7549 209H43.8449L40.1849 203.45V209H39.2749V202.02H40.1849L43.8449 207.56V202.02H44.7549V209Z" fill="black"/>
<path d="M66.7481 202.03V202.77H63.7181V205.12H66.1781V205.86H63.7181V209H62.8081V202.03H66.7481ZM68.7571 202.77V205.1H71.2971V205.85H68.7571V208.25H71.5971V209H67.8471V202.02H71.5971V202.77H68.7571ZM78.7341 202.03L76.1041 209H75.0541L72.4241 202.03H73.3941L75.5841 208.04L77.7741 202.03H78.7341Z" fill="black"/>
<path d="M101.122 202.08V209H100.212V203.84L97.9122 209H97.2722L94.9622 203.83V209H94.0522V202.08H95.0322L97.5922 207.8L100.152 202.08H101.122ZM106.786 207.45H103.746L103.186 209H102.226L104.746 202.07H105.796L108.306 209H107.346L106.786 207.45ZM106.526 206.71L105.266 203.19L104.006 206.71H106.526ZM113.074 209L111.414 206.15H110.314V209H109.404V202.03H111.654C112.18 202.03 112.624 202.12 112.984 202.3C113.35 202.48 113.624 202.723 113.804 203.03C113.984 203.337 114.074 203.687 114.074 204.08C114.074 204.56 113.934 204.983 113.654 205.35C113.38 205.717 112.967 205.96 112.414 206.08L114.164 209H113.074ZM110.314 205.42H111.654C112.147 205.42 112.517 205.3 112.764 205.06C113.01 204.813 113.134 204.487 113.134 204.08C113.134 203.667 113.01 203.347 112.764 203.12C112.524 202.893 112.154 202.78 111.654 202.78H110.314V205.42Z" fill="black"/>
<path d="M129.912 207.45H126.872L126.312 209H125.352L127.872 202.07H128.922L131.432 209H130.472L129.912 207.45ZM129.652 206.71L128.392 203.19L127.132 206.71H129.652ZM136.021 205.41C136.274 205.45 136.504 205.553 136.711 205.72C136.924 205.887 137.091 206.093 137.211 206.34C137.337 206.587 137.401 206.85 137.401 207.13C137.401 207.483 137.311 207.803 137.131 208.09C136.951 208.37 136.687 208.593 136.341 208.76C136.001 208.92 135.597 209 135.131 209H132.531V202.03H135.031C135.504 202.03 135.907 202.11 136.241 202.27C136.574 202.423 136.824 202.633 136.991 202.9C137.157 203.167 137.241 203.467 137.241 203.8C137.241 204.213 137.127 204.557 136.901 204.83C136.681 205.097 136.387 205.29 136.021 205.41ZM133.441 205.04H134.971C135.397 205.04 135.727 204.94 135.961 204.74C136.194 204.54 136.311 204.263 136.311 203.91C136.311 203.557 136.194 203.28 135.961 203.08C135.727 202.88 135.391 202.78 134.951 202.78H133.441V205.04ZM135.051 208.25C135.504 208.25 135.857 208.143 136.111 207.93C136.364 207.717 136.491 207.42 136.491 207.04C136.491 206.653 136.357 206.35 136.091 206.13C135.824 205.903 135.467 205.79 135.021 205.79H133.441V208.25H135.051ZM142.334 209L140.674 206.15H139.574V209H138.664V202.03H140.914C141.44 202.03 141.884 202.12 142.244 202.3C142.61 202.48 142.884 202.723 143.064 203.03C143.244 203.337 143.334 203.687 143.334 204.08C143.334 204.56 143.194 204.983 142.914 205.35C142.64 205.717 142.227 205.96 141.674 206.08L143.424 209H142.334ZM139.574 205.42H140.914C141.407 205.42 141.777 205.3 142.024 205.06C142.27 204.813 142.394 204.487 142.394 204.08C142.394 203.667 142.27 203.347 142.024 203.12C141.784 202.893 141.414 202.78 140.914 202.78H139.574V205.42Z" fill="black"/>
<path d="M164.934 202.08V209H164.024V203.84L161.724 209H161.084L158.774 203.83V209H157.864V202.08H158.844L161.404 207.8L163.964 202.08H164.934ZM170.597 207.45H167.557L166.997 209H166.037L168.557 202.07H169.607L172.117 209H171.157L170.597 207.45ZM170.337 206.71L169.077 203.19L167.817 206.71H170.337ZM174.125 202.03V209H173.215V202.03H174.125Z" fill="black"/>
<path d="M193.739 202.03V207.18C193.739 207.753 193.562 208.213 193.209 208.56C192.856 208.9 192.389 209.07 191.809 209.07C191.222 209.07 190.752 208.897 190.399 208.55C190.046 208.197 189.869 207.717 189.869 207.11H190.779C190.786 207.45 190.872 207.727 191.039 207.94C191.212 208.153 191.469 208.26 191.809 208.26C192.149 208.26 192.402 208.16 192.569 207.96C192.736 207.753 192.819 207.493 192.819 207.18V202.03H193.739ZM196.422 202.03V206.44C196.422 207.06 196.572 207.52 196.872 207.82C197.178 208.12 197.602 208.27 198.142 208.27C198.675 208.27 199.092 208.12 199.392 207.82C199.698 207.52 199.852 207.06 199.852 206.44V202.03H200.762V206.43C200.762 207.01 200.645 207.5 200.412 207.9C200.178 208.293 199.862 208.587 199.462 208.78C199.068 208.973 198.625 209.07 198.132 209.07C197.638 209.07 197.192 208.973 196.792 208.78C196.398 208.587 196.085 208.293 195.852 207.9C195.625 207.5 195.512 207.01 195.512 206.43V202.03H196.422ZM207.76 209H206.85L203.19 203.45V209H202.28V202.02H203.19L206.85 207.56V202.02H207.76V209Z" fill="black"/>
<path d="M229.596 202.03V207.18C229.596 207.753 229.42 208.213 229.066 208.56C228.713 208.9 228.246 209.07 227.666 209.07C227.08 209.07 226.61 208.897 226.256 208.55C225.903 208.197 225.726 207.717 225.726 207.11H226.636C226.643 207.45 226.73 207.727 226.896 207.94C227.07 208.153 227.326 208.26 227.666 208.26C228.006 208.26 228.26 208.16 228.426 207.96C228.593 207.753 228.676 207.493 228.676 207.18V202.03H229.596ZM232.279 202.03V206.44C232.279 207.06 232.429 207.52 232.729 207.82C233.036 208.12 233.459 208.27 233.999 208.27C234.532 208.27 234.949 208.12 235.249 207.82C235.556 207.52 235.709 207.06 235.709 206.44V202.03H236.619V206.43C236.619 207.01 236.502 207.5 236.269 207.9C236.036 208.293 235.719 208.587 235.319 208.78C234.926 208.973 234.482 209.07 233.989 209.07C233.496 209.07 233.049 208.973 232.649 208.78C232.256 208.587 231.942 208.293 231.709 207.9C231.482 207.5 231.369 207.01 231.369 206.43V202.03H232.279ZM239.047 208.26H241.487V209H238.137V202.03H239.047V208.26Z" fill="black"/>
<path d="M257.199 207.45H254.159L253.599 209H252.639L255.159 202.07H256.209L258.719 209H257.759L257.199 207.45ZM256.939 206.71L255.679 203.19L254.419 206.71H256.939ZM265.097 204.05C264.904 203.643 264.624 203.33 264.257 203.11C263.89 202.883 263.464 202.77 262.977 202.77C262.49 202.77 262.05 202.883 261.657 203.11C261.27 203.33 260.964 203.65 260.737 204.07C260.517 204.483 260.407 204.963 260.407 205.51C260.407 206.057 260.517 206.537 260.737 206.95C260.964 207.363 261.27 207.683 261.657 207.91C262.05 208.13 262.49 208.24 262.977 208.24C263.657 208.24 264.217 208.037 264.657 207.63C265.097 207.223 265.354 206.673 265.427 205.98H262.647V205.24H266.397V205.94C266.344 206.513 266.164 207.04 265.857 207.52C265.55 207.993 265.147 208.37 264.647 208.65C264.147 208.923 263.59 209.06 262.977 209.06C262.33 209.06 261.74 208.91 261.207 208.61C260.674 208.303 260.25 207.88 259.937 207.34C259.63 206.8 259.477 206.19 259.477 205.51C259.477 204.83 259.63 204.22 259.937 203.68C260.25 203.133 260.674 202.71 261.207 202.41C261.74 202.103 262.33 201.95 262.977 201.95C263.717 201.95 264.37 202.133 264.937 202.5C265.51 202.867 265.927 203.383 266.187 204.05H265.097ZM270.76 209.07C270.113 209.07 269.523 208.92 268.99 208.62C268.457 208.313 268.033 207.89 267.72 207.35C267.413 206.803 267.26 206.19 267.26 205.51C267.26 204.83 267.413 204.22 267.72 203.68C268.033 203.133 268.457 202.71 268.99 202.41C269.523 202.103 270.113 201.95 270.76 201.95C271.413 201.95 272.007 202.103 272.54 202.41C273.073 202.71 273.493 203.13 273.8 203.67C274.107 204.21 274.26 204.823 274.26 205.51C274.26 206.197 274.107 206.81 273.8 207.35C273.493 207.89 273.073 208.313 272.54 208.62C272.007 208.92 271.413 209.07 270.76 209.07ZM270.76 208.28C271.247 208.28 271.683 208.167 272.07 207.94C272.463 207.713 272.77 207.39 272.99 206.97C273.217 206.55 273.33 206.063 273.33 205.51C273.33 204.95 273.217 204.463 272.99 204.05C272.77 203.63 272.467 203.307 272.08 203.08C271.693 202.853 271.253 202.74 270.76 202.74C270.267 202.74 269.827 202.853 269.44 203.08C269.053 203.307 268.747 203.63 268.52 204.05C268.3 204.463 268.19 204.95 268.19 205.51C268.19 206.063 268.3 206.55 268.52 206.97C268.747 207.39 269.053 207.713 269.44 207.94C269.833 208.167 270.273 208.28 270.76 208.28Z" fill="black"/>
<path d="M290.277 209.07C289.817 209.07 289.404 208.99 289.037 208.83C288.677 208.663 288.394 208.437 288.187 208.15C287.98 207.857 287.874 207.52 287.867 207.14H288.837C288.87 207.467 289.004 207.743 289.237 207.97C289.477 208.19 289.824 208.3 290.277 208.3C290.71 208.3 291.05 208.193 291.297 207.98C291.55 207.76 291.677 207.48 291.677 207.14C291.677 206.873 291.604 206.657 291.457 206.49C291.31 206.323 291.127 206.197 290.907 206.11C290.687 206.023 290.39 205.93 290.017 205.83C289.557 205.71 289.187 205.59 288.907 205.47C288.634 205.35 288.397 205.163 288.197 204.91C288.004 204.65 287.907 204.303 287.907 203.87C287.907 203.49 288.004 203.153 288.197 202.86C288.39 202.567 288.66 202.34 289.007 202.18C289.36 202.02 289.764 201.94 290.217 201.94C290.87 201.94 291.404 202.103 291.817 202.43C292.237 202.757 292.474 203.19 292.527 203.73H291.527C291.494 203.463 291.354 203.23 291.107 203.03C290.86 202.823 290.534 202.72 290.127 202.72C289.747 202.72 289.437 202.82 289.197 203.02C288.957 203.213 288.837 203.487 288.837 203.84C288.837 204.093 288.907 204.3 289.047 204.46C289.194 204.62 289.37 204.743 289.577 204.83C289.79 204.91 290.087 205.003 290.467 205.11C290.927 205.237 291.297 205.363 291.577 205.49C291.857 205.61 292.097 205.8 292.297 206.06C292.497 206.313 292.597 206.66 292.597 207.1C292.597 207.44 292.507 207.76 292.327 208.06C292.147 208.36 291.88 208.603 291.527 208.79C291.174 208.977 290.757 209.07 290.277 209.07ZM294.846 202.77V205.1H297.386V205.85H294.846V208.25H297.686V209H293.936V202.02H297.686V202.77H294.846ZM303.353 202.03V202.77H301.453V209H300.543V202.77H298.633V202.03H303.353Z" fill="black"/>
<path d="M131.734 28.114C131.734 27.162 131.949 26.308 132.378 25.552C132.807 24.7867 133.391 24.1893 134.128 23.76C134.875 23.3307 135.701 23.116 136.606 23.116C137.67 23.116 138.599 23.3727 139.392 23.886C140.185 24.3993 140.764 25.1273 141.128 26.07H139.602C139.331 25.482 138.939 25.0293 138.426 24.712C137.922 24.3947 137.315 24.236 136.606 24.236C135.925 24.236 135.313 24.3947 134.772 24.712C134.231 25.0293 133.806 25.482 133.498 26.07C133.19 26.6487 133.036 27.33 133.036 28.114C133.036 28.8887 133.19 29.57 133.498 30.158C133.806 30.7367 134.231 31.1847 134.772 31.502C135.313 31.8193 135.925 31.978 136.606 31.978C137.315 31.978 137.922 31.824 138.426 31.516C138.939 31.1987 139.331 30.746 139.602 30.158H141.128C140.764 31.0913 140.185 31.8147 139.392 32.328C138.599 32.832 137.67 33.084 136.606 33.084C135.701 33.084 134.875 32.874 134.128 32.454C133.391 32.0247 132.807 31.432 132.378 30.676C131.949 29.92 131.734 29.066 131.734 28.114ZM147.448 33.098C146.543 33.098 145.717 32.888 144.97 32.468C144.224 32.0387 143.631 31.446 143.192 30.69C142.763 29.9247 142.548 29.066 142.548 28.114C142.548 27.162 142.763 26.308 143.192 25.552C143.631 24.7867 144.224 24.194 144.97 23.774C145.717 23.3447 146.543 23.13 147.448 23.13C148.363 23.13 149.194 23.3447 149.94 23.774C150.687 24.194 151.275 24.782 151.704 25.538C152.134 26.294 152.348 27.1527 152.348 28.114C152.348 29.0753 152.134 29.934 151.704 30.69C151.275 31.446 150.687 32.0387 149.94 32.468C149.194 32.888 148.363 33.098 147.448 33.098ZM147.448 31.992C148.13 31.992 148.741 31.8333 149.282 31.516C149.833 31.1987 150.262 30.746 150.57 30.158C150.888 29.57 151.046 28.8887 151.046 28.114C151.046 27.33 150.888 26.6487 150.57 26.07C150.262 25.482 149.838 25.0293 149.296 24.712C148.755 24.3947 148.139 24.236 147.448 24.236C146.758 24.236 146.142 24.3947 145.6 24.712C145.059 25.0293 144.63 25.482 144.312 26.07C144.004 26.6487 143.85 27.33 143.85 28.114C143.85 28.8887 144.004 29.57 144.312 30.158C144.63 30.746 145.059 31.1987 145.6 31.516C146.151 31.8333 146.767 31.992 147.448 31.992ZM161.702 33H160.428L155.304 25.23V33H154.03V23.228H155.304L160.428 30.984V23.228H161.702V33ZM166.968 33.098C166.324 33.098 165.745 32.986 165.232 32.762C164.728 32.5287 164.331 32.2113 164.042 31.81C163.753 31.3993 163.603 30.928 163.594 30.396H164.952C164.999 30.8533 165.185 31.2407 165.512 31.558C165.848 31.866 166.333 32.02 166.968 32.02C167.575 32.02 168.051 31.8707 168.396 31.572C168.751 31.264 168.928 30.872 168.928 30.396C168.928 30.0227 168.825 29.7193 168.62 29.486C168.415 29.2527 168.158 29.0753 167.85 28.954C167.542 28.8327 167.127 28.702 166.604 28.562C165.96 28.394 165.442 28.226 165.05 28.058C164.667 27.89 164.336 27.6287 164.056 27.274C163.785 26.91 163.65 26.4247 163.65 25.818C163.65 25.286 163.785 24.8147 164.056 24.404C164.327 23.9933 164.705 23.676 165.19 23.452C165.685 23.228 166.249 23.116 166.884 23.116C167.799 23.116 168.545 23.3447 169.124 23.802C169.712 24.2593 170.043 24.866 170.118 25.622H168.718C168.671 25.2487 168.475 24.922 168.13 24.642C167.785 24.3527 167.327 24.208 166.758 24.208C166.226 24.208 165.792 24.348 165.456 24.628C165.12 24.8987 164.952 25.2813 164.952 25.776C164.952 26.1307 165.05 26.42 165.246 26.644C165.451 26.868 165.699 27.0407 165.988 27.162C166.287 27.274 166.702 27.4047 167.234 27.554C167.878 27.7313 168.396 27.9087 168.788 28.086C169.18 28.254 169.516 28.52 169.796 28.884C170.076 29.2387 170.216 29.724 170.216 30.34C170.216 30.816 170.09 31.264 169.838 31.684C169.586 32.104 169.213 32.4447 168.718 32.706C168.223 32.9673 167.64 33.098 166.968 33.098ZM173.337 23.242V29.416C173.337 30.284 173.547 30.928 173.967 31.348C174.396 31.768 174.989 31.978 175.745 31.978C176.491 31.978 177.075 31.768 177.495 31.348C177.924 30.928 178.139 30.284 178.139 29.416V23.242H179.413V29.402C179.413 30.214 179.249 30.9 178.923 31.46C178.596 32.0107 178.153 32.4213 177.593 32.692C177.042 32.9627 176.421 33.098 175.731 33.098C175.04 33.098 174.415 32.9627 173.855 32.692C173.304 32.4213 172.865 32.0107 172.539 31.46C172.221 30.9 172.063 30.214 172.063 29.402V23.242H173.337ZM191.436 23.312V33H190.162V25.776L186.942 33H186.046L182.812 25.762V33H181.538V23.312H182.91L186.494 31.32L190.078 23.312H191.436ZM198.021 33.098C197.115 33.098 196.289 32.888 195.543 32.468C194.796 32.0387 194.203 31.446 193.765 30.69C193.335 29.9247 193.121 29.066 193.121 28.114C193.121 27.162 193.335 26.308 193.765 25.552C194.203 24.7867 194.796 24.194 195.543 23.774C196.289 23.3447 197.115 23.13 198.021 23.13C198.935 23.13 199.766 23.3447 200.513 23.774C201.259 24.194 201.847 24.782 202.277 25.538C202.706 26.294 202.921 27.1527 202.921 28.114C202.921 29.0753 202.706 29.934 202.277 30.69C201.847 31.446 201.259 32.0387 200.513 32.468C199.766 32.888 198.935 33.098 198.021 33.098ZM198.021 31.992C198.702 31.992 199.313 31.8333 199.855 31.516C200.405 31.1987 200.835 30.746 201.143 30.158C201.46 29.57 201.619 28.8887 201.619 28.114C201.619 27.33 201.46 26.6487 201.143 26.07C200.835 25.482 200.41 25.0293 199.869 24.712C199.327 24.3947 198.711 24.236 198.021 24.236C197.33 24.236 196.714 24.3947 196.173 24.712C195.631 25.0293 195.202 25.482 194.885 26.07C194.577 26.6487 194.423 27.33 194.423 28.114C194.423 28.8887 194.577 29.57 194.885 30.158C195.202 30.746 195.631 31.1987 196.173 31.516C196.723 31.8333 197.339 31.992 198.021 31.992Z" fill="black"/>
<defs>
<clipPath id="clip0_21_1098">
<rect width="5.7" height="5.7" fill="white" transform="translate(223 52)"/>
</clipPath>
</defs>
</svg>
