<svg width="28" height="28" viewBox="0 0 28 28" fill="none" xmlns="http://www.w3.org/2000/svg">
<path d="M14 28C21.732 28 28 21.732 28 14C28 6.26801 21.732 0 14 0C6.26801 0 0 6.26801 0 14C0 21.732 6.26801 28 14 28Z" fill="#004D7C"/>
<path d="M16.61 17.48H11.39C11.1593 17.48 10.938 17.5717 10.7749 17.7349C10.6117 17.898 10.52 18.1193 10.52 18.35C10.52 18.5808 10.6117 18.8021 10.7749 18.9652C10.938 19.1284 11.1593 19.22 11.39 19.22H16.61C16.8408 19.22 17.0621 19.1284 17.2252 18.9652C17.3884 18.8021 17.48 18.5808 17.48 18.35C17.48 18.1193 17.3884 17.898 17.2252 17.7349C17.0621 17.5717 16.8408 17.48 16.61 17.48ZM11.39 12.26H12.26C12.4908 12.26 12.7121 12.1684 12.8752 12.0052C13.0384 11.8421 13.13 11.6208 13.13 11.39C13.13 11.1593 13.0384 10.938 12.8752 10.7749C12.7121 10.6117 12.4908 10.52 12.26 10.52H11.39C11.1593 10.52 10.938 10.6117 10.7749 10.7749C10.6117 10.938 10.52 11.1593 10.52 11.39C10.52 11.6208 10.6117 11.8421 10.7749 12.0052C10.938 12.1684 11.1593 12.26 11.39 12.26ZM16.61 14H11.39C11.1593 14 10.938 14.0917 10.7749 14.2549C10.6117 14.418 10.52 14.6393 10.52 14.87C10.52 15.1008 10.6117 15.3221 10.7749 15.4852C10.938 15.6484 11.1593 15.74 11.39 15.74H16.61C16.8408 15.74 17.0621 15.6484 17.2252 15.4852C17.3884 15.3221 17.48 15.1008 17.48 14.87C17.48 14.6393 17.3884 14.418 17.2252 14.2549C17.0621 14.0917 16.8408 14 16.61 14ZM20.71 16.862C20.6274 16.7827 20.5298 16.7206 20.423 16.679C20.3192 16.632 20.2065 16.6076 20.0925 16.6076C19.9785 16.6076 19.8659 16.632 19.762 16.679C19.6553 16.7206 19.5577 16.7827 19.475 16.862C19.3981 16.9466 19.3362 17.0436 19.292 17.149C19.224 17.3073 19.2051 17.4823 19.2375 17.6514C19.27 17.8205 19.3525 17.976 19.4743 18.0978C19.596 18.2196 19.7516 18.3021 19.9207 18.3345C20.0898 18.367 20.2648 18.348 20.423 18.28C20.5285 18.2359 20.6255 18.174 20.71 18.097C20.8307 17.9748 20.9125 17.8195 20.9451 17.6508C20.9777 17.4821 20.9596 17.3075 20.893 17.149C20.8483 17.0435 20.7857 16.9464 20.708 16.862H20.71ZM20.962 11.338C20.9531 11.2581 20.9356 11.1793 20.91 11.103V11.025C20.8683 10.9355 20.8126 10.8531 20.745 10.781L15.523 5.56105C15.4507 5.49487 15.3683 5.44053 15.279 5.40005C15.2532 5.39638 15.2269 5.39638 15.201 5.40005C15.113 5.34788 15.0154 5.31388 14.914 5.30005H9.65004C8.95782 5.30005 8.29396 5.57503 7.80449 6.0645C7.31502 6.55397 7.04004 7.21783 7.04004 7.91005L7.04004 20.09C7.04004 20.7823 7.31502 21.4461 7.80449 21.9356C8.29396 22.4251 8.95782 22.7 9.65004 22.7H16.61C16.8408 22.7 17.0621 22.6084 17.2252 22.4452C17.3884 22.2821 17.48 22.0608 17.48 21.83C17.48 21.5993 17.3884 21.378 17.2252 21.2149C17.0621 21.0517 16.8408 20.96 16.61 20.96H9.65004C9.4193 20.96 9.19801 20.8684 9.03486 20.7052C8.8717 20.5421 8.78004 20.3208 8.78004 20.09V7.91005C8.78004 7.67931 8.8717 7.45802 9.03486 7.29487C9.19801 7.13171 9.4193 7.04005 9.65004 7.04005H14V9.65005C14 9.9928 14.0675 10.3322 14.1987 10.6489C14.3299 10.9655 14.5221 11.2532 14.7645 11.4956C15.254 11.9851 15.9178 12.26 16.61 12.26H19.22V14C19.22 14.2308 19.3117 14.4521 19.4749 14.6152C19.638 14.7784 19.8593 14.87 20.09 14.87C20.3208 14.87 20.5421 14.7784 20.7052 14.6152C20.8684 14.4521 20.96 14.2308 20.96 14V11.338H20.962ZM16.61 10.52C16.3793 10.52 16.158 10.4284 15.9949 10.2652C15.8317 10.1021 15.74 9.88079 15.74 9.65005V8.26705L17.993 10.52H16.61ZM20.09 19.22C19.8593 19.22 19.638 19.3117 19.4749 19.4749C19.3117 19.638 19.22 19.8593 19.22 20.09V21.83C19.22 22.0608 19.3117 22.2821 19.4749 22.4452C19.638 22.6084 19.8593 22.7 20.09 22.7C20.3208 22.7 20.5421 22.6084 20.7052 22.4452C20.8684 22.2821 20.96 22.0608 20.96 21.83V20.09C20.96 19.8593 20.8684 19.638 20.7052 19.4749C20.5421 19.3117 20.3208 19.22 20.09 19.22Z" fill="white"/>
</svg>
