<svg width="19" height="21" viewBox="0 0 19 21" fill="none" xmlns="http://www.w3.org/2000/svg">
<path d="M17.0689 6.02393L11.0689 0.763932C10.5189 0.271977 9.80687 0 9.06894 0C8.33101 0 7.61896 0.271977 7.06894 0.763932L1.06894 6.02393C0.751311 6.30801 0.497843 6.65649 0.325414 7.04618C0.152986 7.43586 0.0655551 7.85781 0.0689425 8.28393V17.0239C0.0689425 17.8196 0.385013 18.5826 0.947622 19.1453C1.51023 19.7079 2.27329 20.0239 3.06894 20.0239H15.0689C15.8646 20.0239 16.6277 19.7079 17.1903 19.1453C17.7529 18.5826 18.0689 17.8196 18.0689 17.0239V8.27393C18.0709 7.8495 17.9828 7.42947 17.8104 7.04161C17.638 6.65375 17.3853 6.30689 17.0689 6.02393ZM11.0689 18.0239H7.06894V13.0239C7.06894 12.7587 7.1743 12.5044 7.36184 12.3168C7.54937 12.1293 7.80373 12.0239 8.06894 12.0239H10.0689C10.3342 12.0239 10.5885 12.1293 10.776 12.3168C10.9636 12.5044 11.0689 12.7587 11.0689 13.0239V18.0239ZM16.0689 17.0239C16.0689 17.2891 15.9636 17.5435 15.776 17.731C15.5885 17.9186 15.3342 18.0239 15.0689 18.0239H13.0689V13.0239C13.0689 12.2283 12.7529 11.4652 12.1903 10.9026C11.6277 10.34 10.8646 10.0239 10.0689 10.0239H8.06894C7.27329 10.0239 6.51023 10.34 5.94762 10.9026C5.38501 11.4652 5.06894 12.2283 5.06894 13.0239V18.0239H3.06894C2.80373 18.0239 2.54937 17.9186 2.36184 17.731C2.1743 17.5435 2.06894 17.2891 2.06894 17.0239V8.27393C2.06912 8.13195 2.09954 7.99163 2.15816 7.86231C2.21678 7.73299 2.30227 7.61764 2.40894 7.52393L8.40894 2.27393C8.59143 2.11361 8.82603 2.0252 9.06894 2.0252C9.31185 2.0252 9.54645 2.11361 9.72894 2.27393L15.7289 7.52393C15.8356 7.61764 15.9211 7.73299 15.9797 7.86231C16.0383 7.99163 16.0688 8.13195 16.0689 8.27393V17.0239Z" fill="#4B4B4B"/>
</svg>
