<svg width="20" height="16" viewBox="0 0 20 16" fill="none" xmlns="http://www.w3.org/2000/svg">
<path opacity="0.5" d="M19.923 7.6C17.903 2.91 14.103 0 10.003 0C5.903 0 2.103 2.91 0.0829966 7.6C0.0279333 7.72617 -0.000488281 7.86234 -0.000488281 8C-0.000488281 8.13766 0.0279333 8.27383 0.0829966 8.4C2.103 13.09 5.903 16 10.003 16C14.103 16 17.903 13.09 19.923 8.4C19.9781 8.27383 20.0065 8.13766 20.0065 8C20.0065 7.86234 19.9781 7.72617 19.923 7.6ZM10.003 14C6.823 14 3.833 11.71 2.103 8C3.833 4.29 6.823 2 10.003 2C13.183 2 16.173 4.29 17.903 8C16.173 11.71 13.183 14 10.003 14ZM10.003 4C9.07756 3.9998 8.18069 4.3205 7.46521 4.90744C6.74972 5.49438 6.25988 6.31125 6.07916 7.21886C5.89843 8.12648 6.03801 9.06868 6.4741 9.88492C6.91019 10.7012 7.61581 11.3409 8.47073 11.6952C9.32566 12.0495 10.277 12.0964 11.1626 11.828C12.0482 11.5595 12.8134 10.9922 13.3277 10.2228C13.8419 9.45345 14.0735 8.52955 13.9829 7.60856C13.8924 6.68757 13.4853 5.82648 12.831 5.172C12.081 4.4218 11.0638 4.00023 10.003 4ZM10.003 10C9.54028 10.0001 9.09185 9.83975 8.7341 9.54628C8.37636 9.25281 8.13144 8.84438 8.04108 8.39057C7.95071 7.93676 8.0205 7.46566 8.23855 7.05754C8.45659 6.64942 8.8094 6.32953 9.23687 6.15238C9.66433 5.97523 10.14 5.95178 10.5828 6.08602C11.0256 6.22026 11.4082 6.50389 11.6653 6.88858C11.9225 7.27327 12.0383 7.73522 11.993 8.19572C11.9477 8.65621 11.7441 9.08676 11.417 9.414C11.042 9.7891 10.5334 9.99989 10.003 10Z" fill="#004D7C"/>
</svg>
